<?xml version="1.0" encoding="UTF-8"?>
<svg width="512" height="512" viewBox="0 0 256 256" xmlns="http://www.w3.org/2000/svg" role="img" aria-label="Health Box icon">
  <defs>
    <style>
      :root { --hb-blue: #1E6AF5; }
    </style>
  </defs>

  <!-- Outer rounded box -->
  <rect x="12" y="12" width="232" height="232" rx="28" ry="28"
        fill="none" stroke="#1E6AF5" stroke-width="14" stroke-linejoin="round"/>

  <!-- Shield -->
  <path d="M128 58
           C111 70, 90 76, 72 78
           V122
           c0 38 23 72 56 86
           c33-14 56-48 56-86
           V78
           c-18-2 -39-8 -56-20z"
        fill="none" stroke="#1E6AF5" stroke-width="14" stroke-linecap="round" stroke-linejoin="round"/>

  <!-- Heart inside shield -->
  <path d="M128 154
           c-1 0-2 0-3-1
           c-14-12-24-21-28-31
           c-5-13 2-27 16-30
           c8-2 16 1 21 7
           c5-6 13-9 21-7
           c14 3 21 17 16 30
           c-4 10-14 19-28 31
           c-1 1-2 1-3 1z"
        fill="none" stroke="#1E6AF5" stroke-width="14" stroke-linecap="round" stroke-linejoin="round"/>
</svg>
